<svg width="200" height="29" viewBox="0 0 200 29" fill="none" xmlns="http://www.w3.org/2000/svg">
<path d="M2.1 24.565V1.815C2.1 1.34833 2.32167 0.998333 2.765 0.764999C3.20833 0.531666 3.745 0.415 4.375 0.415C5.005 0.415 5.54167 0.531666 5.985 0.764999C6.42833 0.998333 6.65 1.34833 6.65 1.815V22.01H15.19C15.61 22.01 15.9367 22.2083 16.17 22.605C16.4267 23.0017 16.555 23.4683 16.555 24.005C16.555 24.5417 16.4267 25.0083 16.17 25.405C15.9367 25.8017 15.61 26 15.19 26H4.095C3.55833 26 3.09167 25.8717 2.695 25.615C2.29833 25.3583 2.1 25.0083 2.1 24.565ZM17.863 18.195V8.43C17.863 5.65333 18.598 3.62333 20.068 2.34C21.5613 1.05667 23.5563 0.415 26.053 0.415C28.5496 0.415 30.5446 1.05667 32.038 2.34C33.5313 3.62333 34.278 5.65333 34.278 8.43V18.195C34.278 20.9717 33.5313 23.0017 32.038 24.285C30.5446 25.5683 28.5496 26.21 26.053 26.21C23.5563 26.21 21.5613 25.5683 20.068 24.285C18.598 23.0017 17.863 20.9717 17.863 18.195ZM22.413 18.195C22.413 20.8783 23.6263 22.22 26.053 22.22C28.503 22.22 29.728 20.8783 29.728 18.195V8.43C29.728 5.74667 28.503 4.405 26.053 4.405C23.6263 4.405 22.413 5.74667 22.413 8.43V18.195ZM37.5673 18.195V1.815C37.5673 1.34833 37.7889 0.998333 38.2323 0.764999C38.6756 0.531666 39.2123 0.415 39.8423 0.415C40.4723 0.415 41.0089 0.531666 41.4523 0.764999C41.8956 0.998333 42.1173 1.34833 42.1173 1.815V18.195C42.1173 20.8783 43.4006 22.22 45.9673 22.22C48.5339 22.22 49.8173 20.8783 49.8173 18.195V1.815C49.8173 1.34833 50.0389 0.998333 50.4823 0.764999C50.9256 0.531666 51.4623 0.415 52.0923 0.415C52.7223 0.415 53.2589 0.531666 53.7023 0.764999C54.1456 0.998333 54.3673 1.34833 54.3673 1.815V18.195C54.3673 20.9483 53.5973 22.9783 52.0573 24.285C50.5406 25.5683 48.5106 26.21 45.9673 26.21C43.4239 26.21 41.3823 25.5683 39.8423 24.285C38.3256 23.0017 37.5673 20.9717 37.5673 18.195ZM57.9535 24.565V1.815C57.9535 1.34833 58.1752 0.998333 58.6185 0.764999C59.0618 0.531666 59.5985 0.415 60.2285 0.415C60.8585 0.415 61.3952 0.531666 61.8385 0.764999C62.2818 0.998333 62.5035 1.34833 62.5035 1.815V24.565C62.5035 25.0083 62.2702 25.3583 61.8035 25.615C61.3602 25.8717 60.8352 26 60.2285 26C59.5985 26 59.0618 25.8717 58.6185 25.615C58.1752 25.3583 57.9535 25.0083 57.9535 24.565ZM64.9435 21.975C64.9435 21.4383 65.1418 20.9017 65.5385 20.365C65.9585 19.805 66.4252 19.525 66.9385 19.525C67.2418 19.525 67.5802 19.665 67.9535 19.945C68.3502 20.225 68.7235 20.54 69.0735 20.89C69.4468 21.2167 69.9718 21.52 70.6485 21.8C71.3252 22.08 72.0718 22.22 72.8885 22.22C74.0085 22.22 74.9418 21.9633 75.6885 21.45C76.4352 20.9367 76.8085 20.1783 76.8085 19.175C76.8085 18.475 76.5985 17.8567 76.1785 17.32C75.7818 16.76 75.2452 16.305 74.5685 15.955C73.9152 15.5817 73.1918 15.2317 72.3985 14.905C71.6052 14.555 70.8002 14.17 69.9835 13.75C69.1902 13.33 68.4552 12.8633 67.7785 12.35C67.1252 11.8133 66.5885 11.1133 66.1685 10.25C65.7718 9.36333 65.5735 8.36 65.5735 7.24C65.5735 6.00333 65.8185 4.91833 66.3085 3.985C66.8218 3.02833 67.4985 2.29333 68.3385 1.78C69.1785 1.24333 70.0768 0.858332 71.0335 0.624999C71.9902 0.368332 73.0052 0.239998 74.0785 0.239998C74.6852 0.239998 75.3268 0.286665 76.0035 0.379998C76.6802 0.449999 77.3918 0.578332 78.1385 0.764999C78.9085 0.951665 79.5268 1.24333 79.9935 1.64C80.4835 2.03667 80.7285 2.50333 80.7285 3.04C80.7285 3.55333 80.5652 4.09 80.2385 4.65C79.9118 5.18667 79.4685 5.455 78.9085 5.455C78.6985 5.455 78.1268 5.23333 77.1935 4.79C76.2602 4.34667 75.2218 4.125 74.0785 4.125C72.8185 4.125 71.8385 4.37 71.1385 4.86C70.4618 5.32667 70.1235 5.98 70.1235 6.82C70.1235 7.49666 70.4035 8.09167 70.9635 8.605C71.5235 9.095 72.2118 9.50333 73.0285 9.83C73.8685 10.1333 74.7668 10.53 75.7235 11.02C76.7035 11.4867 77.6018 12 78.4185 12.56C79.2585 13.12 79.9585 13.9367 80.5185 15.01C81.0785 16.06 81.3585 17.2967 81.3585 18.72C81.3585 21.1467 80.5885 23.025 79.0485 24.355C77.5318 25.6617 75.5252 26.315 73.0285 26.315C70.8118 26.315 68.9102 25.86 67.3235 24.95C65.7368 24.04 64.9435 23.0483 64.9435 21.975ZM82.3096 2.445C82.3096 1.90833 82.4263 1.44167 82.6596 1.045C82.9163 0.624999 83.278 0.415 83.7446 0.415H98.5496C99.0163 0.415 99.3663 0.624999 99.5996 1.045C99.8563 1.44167 99.9846 1.90833 99.9846 2.445C99.9846 3.005 99.8563 3.495 99.5996 3.915C99.343 4.31167 98.993 4.51 98.5496 4.51H93.4396V24.565C93.4396 25.0083 93.2063 25.3583 92.7396 25.615C92.2963 25.8717 91.7713 26 91.1646 26C90.5346 26 89.998 25.8717 89.5546 25.615C89.1113 25.3583 88.8896 25.0083 88.8896 24.565V4.51H83.7446C83.3013 4.51 82.9513 4.31167 82.6946 3.915C82.438 3.51833 82.3096 3.02833 82.3096 2.445ZM98.1793 24.11C98.1793 24.0633 98.2026 23.9467 98.2493 23.76L105.004 1.745C105.144 1.255 105.483 0.881665 106.019 0.624999C106.579 0.344999 107.209 0.204998 107.909 0.204998C108.609 0.204998 109.239 0.344999 109.799 0.624999C110.359 0.881665 110.709 1.255 110.849 1.745L117.604 23.76C117.651 23.9467 117.674 24.0633 117.674 24.11C117.674 24.6233 117.359 25.0667 116.729 25.44C116.099 25.8133 115.458 26 114.804 26C113.941 26 113.428 25.6967 113.264 25.09L111.934 20.435H103.919L102.589 25.09C102.426 25.6967 101.913 26 101.049 26C100.373 26 99.7193 25.825 99.0893 25.475C98.4826 25.1017 98.1793 24.6467 98.1793 24.11ZM104.864 16.865H110.954L107.909 6.12L104.864 16.865ZM119.316 18.195V8.43C119.316 5.67667 120.051 3.65833 121.521 2.375C123.014 1.06833 124.963 0.415 127.366 0.415C129.839 0.415 131.846 1.02167 133.386 2.235C134.949 3.44833 135.731 5.08167 135.731 7.135C135.731 7.975 135.544 8.54667 135.171 8.85C134.821 9.15333 134.249 9.305 133.456 9.305C131.963 9.305 131.204 8.82667 131.181 7.87C131.111 6.84333 130.819 6.015 130.306 5.385C129.793 4.73167 128.871 4.405 127.541 4.405C125.091 4.405 123.866 5.74667 123.866 8.43V18.195C123.866 20.8783 125.079 22.22 127.506 22.22C128.673 22.22 129.571 21.8817 130.201 21.205C130.854 20.5283 131.181 19.525 131.181 18.195V16.13H128.346C127.903 16.13 127.553 15.955 127.296 15.605C127.063 15.255 126.946 14.835 126.946 14.345C126.946 13.8783 127.074 13.47 127.331 13.12C127.588 12.7467 127.926 12.56 128.346 12.56H134.296C134.739 12.56 135.089 12.7117 135.346 13.015C135.603 13.295 135.731 13.6333 135.731 14.03V18.195C135.731 20.9717 134.984 23.0017 133.491 24.285C131.998 25.5683 130.003 26.21 127.506 26.21C125.009 26.21 123.014 25.5683 121.521 24.285C120.051 23.0017 119.316 20.9717 119.316 18.195ZM138.852 24.565V1.815C138.852 1.44167 138.992 1.115 139.272 0.834999C139.552 0.554999 139.902 0.415 140.322 0.415H147.252C152.782 0.415 155.547 2.85333 155.547 7.73C155.547 9.64333 155.127 11.1833 154.287 12.35C153.47 13.5167 152.362 14.31 150.962 14.73L155.547 23.235C155.664 23.375 155.722 23.5617 155.722 23.795C155.722 24.3783 155.419 24.9267 154.812 25.44C154.205 25.93 153.564 26.175 152.887 26.175C152.21 26.175 151.685 25.8133 151.312 25.09L146.342 15.43H143.402V24.565C143.402 25.0083 143.18 25.3583 142.737 25.615C142.294 25.8717 141.757 26 141.127 26C140.52 26 139.984 25.8717 139.517 25.615C139.074 25.3583 138.852 25.0083 138.852 24.565ZM143.402 11.86H147.252C149.749 11.86 150.997 10.6233 150.997 8.15C150.997 5.65333 149.749 4.405 147.252 4.405H143.402V11.86ZM156.528 24.11C156.528 24.0633 156.551 23.9467 156.598 23.76L163.353 1.745C163.493 1.255 163.831 0.881665 164.368 0.624999C164.928 0.344999 165.558 0.204998 166.258 0.204998C166.958 0.204998 167.588 0.344999 168.148 0.624999C168.708 0.881665 169.058 1.255 169.198 1.745L175.953 23.76C176 23.9467 176.023 24.0633 176.023 24.11C176.023 24.6233 175.708 25.0667 175.078 25.44C174.448 25.8133 173.806 26 173.153 26C172.29 26 171.776 25.6967 171.613 25.09L170.283 20.435H162.268L160.938 25.09C160.775 25.6967 160.261 26 159.398 26C158.721 26 158.068 25.825 157.438 25.475C156.831 25.1017 156.528 24.6467 156.528 24.11ZM163.213 16.865H169.303L166.258 6.12L163.213 16.865ZM177.945 24.565V2.69C177.945 1.92 178.155 1.34833 178.575 0.974999C179.018 0.601666 179.566 0.415 180.22 0.415C181.083 0.415 181.748 0.566666 182.215 0.869998C182.681 1.17333 183.195 1.82666 183.755 2.83L188.06 10.67L192.365 2.83C192.925 1.82666 193.438 1.17333 193.905 0.869998C194.395 0.566666 195.071 0.415 195.935 0.415C196.588 0.415 197.125 0.601666 197.545 0.974999C197.988 1.34833 198.21 1.92 198.21 2.69V24.565C198.21 25.0083 197.976 25.3583 197.51 25.615C197.066 25.8717 196.541 26 195.935 26C195.305 26 194.768 25.8717 194.325 25.615C193.881 25.3583 193.66 25.0083 193.66 24.565V9.515L189.565 16.795C189.238 17.4017 188.725 17.705 188.025 17.705C187.348 17.705 186.846 17.4017 186.52 16.795L182.495 9.235V24.565C182.495 25.0083 182.261 25.3583 181.795 25.615C181.351 25.8717 180.826 26 180.22 26C179.59 26 179.053 25.8717 178.61 25.615C178.166 25.3583 177.945 25.0083 177.945 24.565Z" fill="url(#paint0_linear)"/>
<path d="M0 27.785H199.81V28.695H0V27.785Z" fill="url(#paint1_linear)"/>
<defs>
<linearGradient id="paint0_linear" x1="-0.388551" y1="13" x2="199.611" y2="13" gradientUnits="userSpaceOnUse">
<stop stop-color="#FF4963"/>
<stop offset="0.494792" stop-color="#FFB03D"/>
<stop offset="0.9999" stop-color="#23CC99"/>
<stop offset="1" stop-color="#17C8A2"/>
</linearGradient>
<linearGradient id="paint1_linear" x1="-0.388551" y1="13" x2="199.611" y2="13" gradientUnits="userSpaceOnUse">
<stop stop-color="#FF4963"/>
<stop offset="0.494792" stop-color="#FFB03D"/>
<stop offset="0.9999" stop-color="#23CC99"/>
<stop offset="1" stop-color="#17C8A2"/>
</linearGradient>
</defs>
</svg>
