<svg width="202" height="30" viewBox="0 0 202 30" fill="none" xmlns="http://www.w3.org/2000/svg">
<path d="M3.1 25.565V2.815C3.1 2.34833 3.32167 1.99833 3.765 1.765C4.20833 1.53167 4.745 1.415 5.375 1.415C6.005 1.415 6.54167 1.53167 6.985 1.765C7.42833 1.99833 7.65 2.34833 7.65 2.815V23.01H16.19C16.61 23.01 16.9367 23.2083 17.17 23.605C17.4267 24.0017 17.555 24.4683 17.555 25.005C17.555 25.5417 17.4267 26.0083 17.17 26.405C16.9367 26.8017 16.61 27 16.19 27H5.095C4.55833 27 4.09167 26.8717 3.695 26.615C3.29833 26.3583 3.1 26.0083 3.1 25.565ZM18.863 19.195V9.43C18.863 6.65333 19.598 4.62333 21.068 3.34C22.5613 2.05667 24.5563 1.415 27.053 1.415C29.5496 1.415 31.5446 2.05667 33.038 3.34C34.5313 4.62333 35.278 6.65333 35.278 9.43V19.195C35.278 21.9717 34.5313 24.0017 33.038 25.285C31.5446 26.5683 29.5496 27.21 27.053 27.21C24.5563 27.21 22.5613 26.5683 21.068 25.285C19.598 24.0017 18.863 21.9717 18.863 19.195ZM23.413 19.195C23.413 21.8783 24.6263 23.22 27.053 23.22C29.503 23.22 30.728 21.8783 30.728 19.195V9.43C30.728 6.74667 29.503 5.405 27.053 5.405C24.6263 5.405 23.413 6.74667 23.413 9.43V19.195ZM38.5673 19.195V2.815C38.5673 2.34833 38.7889 1.99833 39.2323 1.765C39.6756 1.53167 40.2123 1.415 40.8423 1.415C41.4723 1.415 42.0089 1.53167 42.4523 1.765C42.8956 1.99833 43.1173 2.34833 43.1173 2.815V19.195C43.1173 21.8783 44.4006 23.22 46.9673 23.22C49.5339 23.22 50.8173 21.8783 50.8173 19.195V2.815C50.8173 2.34833 51.0389 1.99833 51.4823 1.765C51.9256 1.53167 52.4623 1.415 53.0923 1.415C53.7223 1.415 54.2589 1.53167 54.7023 1.765C55.1456 1.99833 55.3673 2.34833 55.3673 2.815V19.195C55.3673 21.9483 54.5973 23.9783 53.0573 25.285C51.5406 26.5683 49.5106 27.21 46.9673 27.21C44.4239 27.21 42.3823 26.5683 40.8423 25.285C39.3256 24.0017 38.5673 21.9717 38.5673 19.195ZM58.9535 25.565V2.815C58.9535 2.34833 59.1752 1.99833 59.6185 1.765C60.0618 1.53167 60.5985 1.415 61.2285 1.415C61.8585 1.415 62.3952 1.53167 62.8385 1.765C63.2818 1.99833 63.5035 2.34833 63.5035 2.815V25.565C63.5035 26.0083 63.2702 26.3583 62.8035 26.615C62.3602 26.8717 61.8352 27 61.2285 27C60.5985 27 60.0618 26.8717 59.6185 26.615C59.1752 26.3583 58.9535 26.0083 58.9535 25.565ZM65.9435 22.975C65.9435 22.4383 66.1418 21.9017 66.5385 21.365C66.9585 20.805 67.4252 20.525 67.9385 20.525C68.2418 20.525 68.5802 20.665 68.9535 20.945C69.3502 21.225 69.7235 21.54 70.0735 21.89C70.4468 22.2167 70.9718 22.52 71.6485 22.8C72.3252 23.08 73.0718 23.22 73.8885 23.22C75.0085 23.22 75.9418 22.9633 76.6885 22.45C77.4352 21.9367 77.8085 21.1783 77.8085 20.175C77.8085 19.475 77.5985 18.8567 77.1785 18.32C76.7818 17.76 76.2452 17.305 75.5685 16.955C74.9152 16.5817 74.1918 16.2317 73.3985 15.905C72.6052 15.555 71.8002 15.17 70.9835 14.75C70.1902 14.33 69.4552 13.8633 68.7785 13.35C68.1252 12.8133 67.5885 12.1133 67.1685 11.25C66.7718 10.3633 66.5735 9.36 66.5735 8.24C66.5735 7.00333 66.8185 5.91833 67.3085 4.985C67.8218 4.02833 68.4985 3.29333 69.3385 2.78C70.1785 2.24333 71.0768 1.85833 72.0335 1.625C72.9902 1.36833 74.0052 1.24 75.0785 1.24C75.6852 1.24 76.3268 1.28666 77.0035 1.38C77.6802 1.45 78.3918 1.57833 79.1385 1.765C79.9085 1.95167 80.5268 2.24333 80.9935 2.64C81.4835 3.03667 81.7285 3.50333 81.7285 4.04C81.7285 4.55333 81.5652 5.09 81.2385 5.65C80.9118 6.18667 80.4685 6.455 79.9085 6.455C79.6985 6.455 79.1268 6.23333 78.1935 5.79C77.2602 5.34667 76.2218 5.125 75.0785 5.125C73.8185 5.125 72.8385 5.37 72.1385 5.86C71.4618 6.32667 71.1235 6.98 71.1235 7.82C71.1235 8.49666 71.4035 9.09167 71.9635 9.605C72.5235 10.095 73.2118 10.5033 74.0285 10.83C74.8685 11.1333 75.7668 11.53 76.7235 12.02C77.7035 12.4867 78.6018 13 79.4185 13.56C80.2585 14.12 80.9585 14.9367 81.5185 16.01C82.0785 17.06 82.3585 18.2967 82.3585 19.72C82.3585 22.1467 81.5885 24.025 80.0485 25.355C78.5318 26.6617 76.5252 27.315 74.0285 27.315C71.8118 27.315 69.9102 26.86 68.3235 25.95C66.7368 25.04 65.9435 24.0483 65.9435 22.975ZM83.3096 3.445C83.3096 2.90833 83.4263 2.44167 83.6596 2.045C83.9163 1.625 84.278 1.415 84.7446 1.415H99.5496C100.016 1.415 100.366 1.625 100.6 2.045C100.856 2.44167 100.985 2.90833 100.985 3.445C100.985 4.005 100.856 4.495 100.6 4.915C100.343 5.31167 99.993 5.51 99.5496 5.51H94.4396V25.565C94.4396 26.0083 94.2063 26.3583 93.7396 26.615C93.2963 26.8717 92.7713 27 92.1646 27C91.5346 27 90.998 26.8717 90.5546 26.615C90.1113 26.3583 89.8896 26.0083 89.8896 25.565V5.51H84.7446C84.3013 5.51 83.9513 5.31167 83.6946 4.915C83.438 4.51833 83.3096 4.02833 83.3096 3.445ZM99.1793 25.11C99.1793 25.0633 99.2026 24.9467 99.2493 24.76L106.004 2.745C106.144 2.255 106.483 1.88167 107.019 1.625C107.579 1.345 108.209 1.205 108.909 1.205C109.609 1.205 110.239 1.345 110.799 1.625C111.359 1.88167 111.709 2.255 111.849 2.745L118.604 24.76C118.651 24.9467 118.674 25.0633 118.674 25.11C118.674 25.6233 118.359 26.0667 117.729 26.44C117.099 26.8133 116.458 27 115.804 27C114.941 27 114.428 26.6967 114.264 26.09L112.934 21.435H104.919L103.589 26.09C103.426 26.6967 102.913 27 102.049 27C101.373 27 100.719 26.825 100.089 26.475C99.4826 26.1017 99.1793 25.6467 99.1793 25.11ZM105.864 17.865H111.954L108.909 7.12L105.864 17.865ZM120.316 19.195V9.43C120.316 6.67667 121.051 4.65833 122.521 3.375C124.014 2.06833 125.963 1.415 128.366 1.415C130.839 1.415 132.846 2.02167 134.386 3.235C135.949 4.44833 136.731 6.08167 136.731 8.135C136.731 8.975 136.544 9.54667 136.171 9.85C135.821 10.1533 135.249 10.305 134.456 10.305C132.963 10.305 132.204 9.82667 132.181 8.87C132.111 7.84333 131.819 7.015 131.306 6.385C130.793 5.73167 129.871 5.405 128.541 5.405C126.091 5.405 124.866 6.74667 124.866 9.43V19.195C124.866 21.8783 126.079 23.22 128.506 23.22C129.673 23.22 130.571 22.8817 131.201 22.205C131.854 21.5283 132.181 20.525 132.181 19.195V17.13H129.346C128.903 17.13 128.553 16.955 128.296 16.605C128.063 16.255 127.946 15.835 127.946 15.345C127.946 14.8783 128.074 14.47 128.331 14.12C128.588 13.7467 128.926 13.56 129.346 13.56H135.296C135.739 13.56 136.089 13.7117 136.346 14.015C136.603 14.295 136.731 14.6333 136.731 15.03V19.195C136.731 21.9717 135.984 24.0017 134.491 25.285C132.998 26.5683 131.003 27.21 128.506 27.21C126.009 27.21 124.014 26.5683 122.521 25.285C121.051 24.0017 120.316 21.9717 120.316 19.195ZM139.852 25.565V2.815C139.852 2.44167 139.992 2.115 140.272 1.835C140.552 1.555 140.902 1.415 141.322 1.415H148.252C153.782 1.415 156.547 3.85333 156.547 8.73C156.547 10.6433 156.127 12.1833 155.287 13.35C154.47 14.5167 153.362 15.31 151.962 15.73L156.547 24.235C156.664 24.375 156.722 24.5617 156.722 24.795C156.722 25.3783 156.419 25.9267 155.812 26.44C155.205 26.93 154.564 27.175 153.887 27.175C153.21 27.175 152.685 26.8133 152.312 26.09L147.342 16.43H144.402V25.565C144.402 26.0083 144.18 26.3583 143.737 26.615C143.294 26.8717 142.757 27 142.127 27C141.52 27 140.984 26.8717 140.517 26.615C140.074 26.3583 139.852 26.0083 139.852 25.565ZM144.402 12.86H148.252C150.749 12.86 151.997 11.6233 151.997 9.15C151.997 6.65333 150.749 5.405 148.252 5.405H144.402V12.86ZM157.528 25.11C157.528 25.0633 157.551 24.9467 157.598 24.76L164.353 2.745C164.493 2.255 164.831 1.88167 165.368 1.625C165.928 1.345 166.558 1.205 167.258 1.205C167.958 1.205 168.588 1.345 169.148 1.625C169.708 1.88167 170.058 2.255 170.198 2.745L176.953 24.76C177 24.9467 177.023 25.0633 177.023 25.11C177.023 25.6233 176.708 26.0667 176.078 26.44C175.448 26.8133 174.806 27 174.153 27C173.29 27 172.776 26.6967 172.613 26.09L171.283 21.435H163.268L161.938 26.09C161.775 26.6967 161.261 27 160.398 27C159.721 27 159.068 26.825 158.438 26.475C157.831 26.1017 157.528 25.6467 157.528 25.11ZM164.213 17.865H170.303L167.258 7.12L164.213 17.865ZM178.945 25.565V3.69C178.945 2.92 179.155 2.34833 179.575 1.975C180.018 1.60167 180.566 1.415 181.22 1.415C182.083 1.415 182.748 1.56667 183.215 1.87C183.681 2.17333 184.195 2.82666 184.755 3.83L189.06 11.67L193.365 3.83C193.925 2.82666 194.438 2.17333 194.905 1.87C195.395 1.56667 196.071 1.415 196.935 1.415C197.588 1.415 198.125 1.60167 198.545 1.975C198.988 2.34833 199.21 2.92 199.21 3.69V25.565C199.21 26.0083 198.976 26.3583 198.51 26.615C198.066 26.8717 197.541 27 196.935 27C196.305 27 195.768 26.8717 195.325 26.615C194.881 26.3583 194.66 26.0083 194.66 25.565V10.515L190.565 17.795C190.238 18.4017 189.725 18.705 189.025 18.705C188.348 18.705 187.846 18.4017 187.52 17.795L183.495 10.235V25.565C183.495 26.0083 183.261 26.3583 182.795 26.615C182.351 26.8717 181.826 27 181.22 27C180.59 27 180.053 26.8717 179.61 26.615C179.166 26.3583 178.945 26.0083 178.945 25.565Z" fill="url(#paint0_linear)"/>
<path d="M1 28.785H200.81V29.695H1V28.785Z" fill="url(#paint1_linear)"/>
<path d="M6.985 1.765L6.86856 1.98623L6.86856 1.98623L6.985 1.765ZM7.65 23.01H7.4V23.26H7.65V23.01ZM17.17 23.605L16.9543 23.7319L16.9601 23.7408L17.17 23.605ZM17.17 26.405L16.9599 26.2691L16.9545 26.2782L17.17 26.405ZM3.695 26.615L3.83081 26.4051L3.83081 26.4051L3.695 26.615ZM3.35 25.565V2.815H2.85V25.565H3.35ZM3.35 2.815C3.35 2.62287 3.39507 2.46634 3.47745 2.33626C3.56045 2.20522 3.69038 2.08678 3.88144 1.98623L3.64856 1.54377C3.39629 1.67655 3.19372 1.84978 3.05505 2.06874C2.91576 2.28865 2.85 2.54046 2.85 2.815H3.35ZM3.88144 1.98623C4.28079 1.77604 4.77535 1.665 5.375 1.665V1.165C4.71465 1.165 4.13587 1.28729 3.64856 1.54377L3.88144 1.98623ZM5.375 1.665C5.97465 1.665 6.46921 1.77604 6.86856 1.98623L7.10144 1.54377C6.61413 1.28729 6.03535 1.165 5.375 1.165V1.665ZM6.86856 1.98623C7.05962 2.08678 7.18955 2.20522 7.27255 2.33626C7.35493 2.46634 7.4 2.62287 7.4 2.815H7.9C7.9 2.54046 7.83424 2.28865 7.69496 2.06874C7.55628 1.84978 7.35372 1.67655 7.10144 1.54377L6.86856 1.98623ZM7.4 2.815V23.01H7.9V2.815H7.4ZM7.65 23.26H16.19V22.76H7.65V23.26ZM16.19 23.26C16.5116 23.26 16.7609 23.4026 16.9545 23.7318L17.3855 23.4782C17.1124 23.0141 16.7084 22.76 16.19 22.76V23.26ZM16.9601 23.7408C17.1872 24.0917 17.305 24.5098 17.305 25.005H17.805C17.805 24.4269 17.6662 23.9116 17.3799 23.4692L16.9601 23.7408ZM17.305 25.005C17.305 25.5002 17.1872 25.9183 16.9601 26.2692L17.3799 26.5408C17.6662 26.0984 17.805 25.5831 17.805 25.005H17.305ZM16.9545 26.2782C16.7609 26.6074 16.5116 26.75 16.19 26.75V27.25C16.7084 27.25 17.1124 26.9959 17.3855 26.5318L16.9545 26.2782ZM16.19 26.75H5.095V27.25H16.19V26.75ZM5.095 26.75C4.59979 26.75 4.18171 26.6322 3.83081 26.4051L3.55919 26.8249C4.00162 27.1112 4.51688 27.25 5.095 27.25V26.75ZM3.83081 26.4051C3.49974 26.1909 3.35 25.9171 3.35 25.565H2.85C2.85 26.0996 3.09692 26.5258 3.55919 26.8249L3.83081 26.4051ZM21.068 3.34L20.905 3.15039L20.9036 3.15167L21.068 3.34ZM33.038 3.34L33.2009 3.15039L33.2009 3.15039L33.038 3.34ZM33.038 25.285L32.875 25.0954L33.038 25.285ZM21.068 25.285L20.9035 25.4733L20.905 25.4746L21.068 25.285ZM19.113 19.195V9.43H18.613V19.195H19.113ZM19.113 9.43C19.113 6.69404 19.8367 4.7468 21.2324 3.52833L20.9036 3.15167C19.3593 4.49986 18.613 6.61262 18.613 9.43H19.113ZM21.2309 3.5296C22.6678 2.29478 24.5996 1.665 27.053 1.665V1.165C24.513 1.165 22.4548 1.81855 20.905 3.15039L21.2309 3.5296ZM27.053 1.665C29.5063 1.665 31.4381 2.29478 32.875 3.5296L33.2009 3.15039C31.6511 1.81855 29.593 1.165 27.053 1.165V1.665ZM32.875 3.5296C34.2933 4.7484 35.028 6.6952 35.028 9.43H35.528C35.528 6.61147 34.7693 4.49826 33.2009 3.15039L32.875 3.5296ZM35.028 9.43V19.195H35.528V9.43H35.028ZM35.028 19.195C35.028 21.9298 34.2933 23.8766 32.875 25.0954L33.2009 25.4746C34.7693 24.1267 35.528 22.0135 35.528 19.195H35.028ZM32.875 25.0954C31.4381 26.3302 29.5063 26.96 27.053 26.96V27.46C29.593 27.46 31.6511 26.8064 33.2009 25.4746L32.875 25.0954ZM27.053 26.96C24.5996 26.96 22.6678 26.3302 21.2309 25.0954L20.905 25.4746C22.4548 26.8064 24.513 27.46 27.053 27.46V26.96ZM21.2324 25.0967C19.8367 23.8782 19.113 21.931 19.113 19.195H18.613C18.613 22.0124 19.3593 24.1251 20.9036 25.4733L21.2324 25.0967ZM23.163 19.195C23.163 20.5693 23.4731 21.6468 24.1375 22.3814C24.8063 23.1209 25.7943 23.47 27.053 23.47V22.97C25.885 22.97 25.053 22.6483 24.5084 22.0461C23.9595 21.4391 23.663 20.504 23.663 19.195H23.163ZM27.053 23.47C28.3227 23.47 29.3191 23.1213 29.9938 22.3823C30.6646 21.6476 30.978 20.5699 30.978 19.195H30.478C30.478 20.5035 30.1788 21.4382 29.6246 22.0452C29.0743 22.6479 28.2333 22.97 27.053 22.97V23.47ZM30.978 19.195V9.43H30.478V19.195H30.978ZM30.978 9.43C30.978 8.05514 30.6646 6.97735 29.9938 6.24268C29.3191 5.5037 28.3227 5.155 27.053 5.155V5.655C28.2333 5.655 29.0743 5.97713 29.6246 6.57982C30.1788 7.18681 30.478 8.12152 30.478 9.43H30.978ZM27.053 5.155C25.7943 5.155 24.8063 5.50412 24.1375 6.24356C23.4731 6.97824 23.163 8.05566 23.163 9.43H23.663C23.663 8.121 23.9595 7.18593 24.5084 6.57893C25.053 5.97671 25.885 5.655 27.053 5.655V5.155ZM23.163 9.43V19.195H23.663V9.43H23.163ZM42.4523 1.765L42.5687 1.54377L42.5687 1.54377L42.4523 1.765ZM51.4823 1.765L51.5987 1.98623L51.5987 1.98623L51.4823 1.765ZM53.0573 25.285L53.2188 25.4758L53.219 25.4756L53.0573 25.285ZM40.8423 25.285L40.6808 25.4759L40.6822 25.4771L40.8423 25.285ZM38.8173 19.195V2.815H38.3173V19.195H38.8173ZM38.8173 2.815C38.8173 2.62287 38.8623 2.46634 38.9447 2.33626C39.0277 2.20522 39.1576 2.08678 39.3487 1.98623L39.1158 1.54377C38.8636 1.67655 38.661 1.84978 38.5223 2.06874C38.383 2.28865 38.3173 2.54046 38.3173 2.815H38.8173ZM39.3487 1.98623C39.7481 1.77604 40.2426 1.665 40.8423 1.665V1.165C40.1819 1.165 39.6031 1.28729 39.1158 1.54377L39.3487 1.98623ZM40.8423 1.665C41.4419 1.665 41.9365 1.77604 42.3358 1.98623L42.5687 1.54377C42.0814 1.28729 41.5026 1.165 40.8423 1.165V1.665ZM42.3358 1.98623C42.5269 2.08678 42.6568 2.20522 42.7398 2.33626C42.8222 2.46634 42.8673 2.62287 42.8673 2.815H43.3673C43.3673 2.54046 43.3015 2.28865 43.1622 2.06874C43.0235 1.84978 42.821 1.67655 42.5687 1.54377L42.3358 1.98623ZM42.8673 2.815V19.195H43.3673V2.815H42.8673ZM42.8673 19.195C42.8673 20.5725 43.1965 21.652 43.8991 22.3866C44.6037 23.1232 45.6425 23.47 46.9673 23.47V22.97C45.7254 22.97 44.8392 22.646 44.2604 22.0409C43.6797 21.4338 43.3673 20.5008 43.3673 19.195H42.8673ZM46.9673 23.47C48.292 23.47 49.3308 23.1232 50.0354 22.3866C50.738 21.652 51.0673 20.5725 51.0673 19.195H50.5673C50.5673 20.5008 50.2548 21.4338 49.6741 22.0409C49.0954 22.646 48.2092 22.97 46.9673 22.97V23.47ZM51.0673 19.195V2.815H50.5673V19.195H51.0673ZM51.0673 2.815C51.0673 2.62287 51.1123 2.46634 51.1947 2.33626C51.2777 2.20522 51.4076 2.08678 51.5987 1.98623L51.3658 1.54377C51.1136 1.67655 50.911 1.84978 50.7723 2.06874C50.633 2.28865 50.5673 2.54046 50.5673 2.815H51.0673ZM51.5987 1.98623C51.9981 1.77604 52.4926 1.665 53.0923 1.665V1.165C52.4319 1.165 51.8531 1.28729 51.3658 1.54377L51.5987 1.98623ZM53.0923 1.665C53.6919 1.665 54.1865 1.77604 54.5858 1.98623L54.8187 1.54377C54.3314 1.28729 53.7526 1.165 53.0923 1.165V1.665ZM54.5858 1.98623C54.7769 2.08678 54.9068 2.20522 54.9898 2.33626C55.0722 2.46634 55.1173 2.62287 55.1173 2.815H55.6173C55.6173 2.54046 55.5515 2.28865 55.4122 2.06874C55.2735 1.84978 55.071 1.67655 54.8187 1.54377L54.5858 1.98623ZM55.1173 2.815V19.195H55.6173V2.815H55.1173ZM55.1173 19.195C55.1173 21.903 54.3612 23.8508 52.8955 25.0944L53.219 25.4756C54.8333 24.1059 55.6173 21.9937 55.6173 19.195H55.1173ZM52.8958 25.0942C51.4357 26.3296 49.4684 26.96 46.9673 26.96V27.46C49.5528 27.46 51.6455 26.8071 53.2188 25.4758L52.8958 25.0942ZM46.9673 26.96C44.4663 26.96 42.4864 26.3297 41.0023 25.0929L40.6822 25.4771C42.2781 26.807 44.3815 27.46 46.9673 27.46V26.96ZM41.0038 25.0942C39.563 23.875 38.8173 21.9286 38.8173 19.195H38.3173C38.3173 22.0147 39.0882 24.1283 40.6808 25.4758L41.0038 25.0942ZM62.8385 1.765L62.7221 1.98623L62.7221 1.98623L62.8385 1.765ZM62.8035 26.615L62.683 26.3959L62.6783 26.3986L62.8035 26.615ZM59.2035 25.565V2.815H58.7035V25.565H59.2035ZM59.2035 2.815C59.2035 2.62287 59.2486 2.46634 59.331 2.33626C59.414 2.20522 59.5439 2.08678 59.735 1.98623L59.5021 1.54377C59.2498 1.67655 59.0472 1.84978 58.9086 2.06874C58.7693 2.28865 58.7035 2.54046 58.7035 2.815H59.2035ZM59.735 1.98623C60.1343 1.77604 60.6289 1.665 61.2285 1.665V1.165C60.5682 1.165 59.9894 1.28729 59.5021 1.54377L59.735 1.98623ZM61.2285 1.665C61.8282 1.665 62.3227 1.77604 62.7221 1.98623L62.955 1.54377C62.4676 1.28729 61.8889 1.165 61.2285 1.165V1.665ZM62.7221 1.98623C62.9131 2.08678 63.0431 2.20522 63.1261 2.33626C63.2084 2.46634 63.2535 2.62287 63.2535 2.815H63.7535C63.7535 2.54046 63.6878 2.28865 63.5485 2.06874C63.4098 1.84978 63.2072 1.67655 62.955 1.54377L62.7221 1.98623ZM63.2535 2.815V25.565H63.7535V2.815H63.2535ZM63.2535 25.565C63.2535 25.8972 63.089 26.1727 62.683 26.3959L62.924 26.8341C63.4514 26.544 63.7535 26.1195 63.7535 25.565H63.2535ZM62.6783 26.3986C62.2795 26.6295 61.7993 26.75 61.2285 26.75V27.25C61.871 27.25 62.4409 27.1138 62.9288 26.8314L62.6783 26.3986ZM61.2285 26.75C60.6325 26.75 60.1412 26.6287 59.7438 26.3986L59.4933 26.8314C59.9825 27.1146 60.5646 27.25 61.2285 27.25V26.75ZM59.7438 26.3986C59.3633 26.1784 59.2035 25.9037 59.2035 25.565H58.7035C58.7035 26.113 58.9871 26.5383 59.4933 26.8314L59.7438 26.3986ZM66.5385 21.365L66.3385 21.215L66.3375 21.2164L66.5385 21.365ZM68.9535 20.945L68.8035 21.1451L68.8093 21.1492L68.9535 20.945ZM70.0735 21.89L69.8967 22.0668L69.9026 22.0727L69.9089 22.0781L70.0735 21.89ZM71.6485 22.8L71.7441 22.569L71.7441 22.569L71.6485 22.8ZM76.6885 22.45L76.8301 22.656L76.8301 22.656L76.6885 22.45ZM77.1785 18.32L76.9743 18.4647L76.9816 18.4741L77.1785 18.32ZM75.5685 16.955L75.4444 17.1723L75.4537 17.1771L75.5685 16.955ZM73.3985 15.905L73.2976 16.1338L73.3033 16.1362L73.3985 15.905ZM70.9835 14.75L70.8665 14.971L70.8692 14.9723L70.9835 14.75ZM68.7785 13.35L68.6197 13.5433L68.6274 13.5492L68.7785 13.35ZM67.1685 11.25L66.9402 11.3521L66.9437 11.3594L67.1685 11.25ZM67.3085 4.985L67.0882 4.86679L67.0872 4.86879L67.3085 4.985ZM69.3385 2.78L69.4689 2.99336L69.4731 2.99067L69.3385 2.78ZM72.0335 1.625L72.0928 1.86794L72.0983 1.86646L72.0335 1.625ZM77.0035 1.38L76.9693 1.6278L76.9778 1.62867L77.0035 1.38ZM79.1385 1.765L79.0779 2.00754L79.0796 2.00796L79.1385 1.765ZM80.9935 2.64L80.8316 2.83054L80.8362 2.83431L80.9935 2.64ZM81.2385 5.65L81.4521 5.78001L81.4545 5.77597L81.2385 5.65ZM78.1935 5.79L78.0863 6.01582L78.0863 6.01582L78.1935 5.79ZM72.1385 5.86L72.2805 6.06581L72.2819 6.06481L72.1385 5.86ZM71.9635 9.605L71.7945 9.78934L71.7989 9.79314L71.9635 9.605ZM74.0285 10.83L73.9356 11.0623L73.9436 11.0651L74.0285 10.83ZM76.7235 12.02L76.6095 12.2426L76.616 12.2457L76.7235 12.02ZM79.4185 13.56L79.2771 13.7662L79.2798 13.768L79.4185 13.56ZM81.5185 16.01L81.2969 16.1256L81.2979 16.1276L81.5185 16.01ZM80.0485 25.355L80.2117 25.5444L80.2119 25.5442L80.0485 25.355ZM68.3235 25.95L68.1991 26.1669L68.3235 25.95ZM66.1935 22.975C66.1935 22.5037 66.3668 22.0179 66.7396 21.5136L66.3375 21.2164C65.9169 21.7855 65.6935 22.373 65.6935 22.975H66.1935ZM66.7385 21.515C67.1298 20.9933 67.5303 20.775 67.9385 20.775V20.275C67.3201 20.275 66.7873 20.6167 66.3385 21.215L66.7385 21.515ZM67.9385 20.775C68.1656 20.775 68.4515 20.881 68.8035 21.145L69.1035 20.745C68.7088 20.449 68.3181 20.275 67.9385 20.275V20.775ZM68.8093 21.1492C69.1942 21.4209 69.5566 21.7266 69.8967 22.0668L70.2503 21.7132C69.8904 21.3534 69.5062 21.0291 69.0977 20.7408L68.8093 21.1492ZM69.9089 22.0781C70.31 22.4291 70.8619 22.7451 71.5529 23.031L71.7441 22.569C71.0818 22.2949 70.5837 22.0042 70.2381 21.7019L69.9089 22.0781ZM71.5529 23.031C72.2632 23.3249 73.0428 23.47 73.8885 23.47V22.97C73.1009 22.97 72.3872 22.8351 71.7441 22.569L71.5529 23.031ZM73.8885 23.47C75.047 23.47 76.0329 23.2041 76.8301 22.656L76.5469 22.244C75.8508 22.7225 74.97 22.97 73.8885 22.97V23.47ZM76.8301 22.656C77.6528 22.0905 78.0585 21.2503 78.0585 20.175H77.5585C77.5585 21.1064 77.2176 21.7829 76.5469 22.244L76.8301 22.656ZM78.0585 20.175C78.0585 19.4208 77.8308 18.7478 77.3754 18.1659L76.9816 18.4741C77.3662 18.9655 77.5585 19.5292 77.5585 20.175H78.0585ZM77.3825 18.1755C76.9603 17.5794 76.3916 17.0992 75.6834 16.7329L75.4537 17.1771C76.0988 17.5108 76.6034 17.9406 76.9745 18.4645L77.3825 18.1755ZM75.6926 16.7379C75.0287 16.3586 74.2956 16.004 73.4937 15.6738L73.3033 16.1362C74.0881 16.4593 74.8016 16.8047 75.4445 17.1721L75.6926 16.7379ZM73.4994 15.6763C72.7109 15.3284 71.9104 14.9455 71.0979 14.5277L70.8692 14.9723C71.69 15.3945 72.4995 15.7816 73.2976 16.1337L73.4994 15.6763ZM71.1005 14.5291C70.3184 14.115 69.5949 13.6555 68.9296 13.1508L68.6274 13.5492C69.3154 14.0711 70.0619 14.545 70.8665 14.9709L71.1005 14.5291ZM68.9372 13.1568C68.3152 12.6459 67.7997 11.976 67.3933 11.1406L66.9437 11.3594C67.3773 12.2507 67.9351 12.9808 68.6198 13.5432L68.9372 13.1568ZM67.3967 11.1479C67.0165 10.2979 66.8235 9.33017 66.8235 8.24H66.3235C66.3235 9.38983 66.5272 10.4288 66.9403 11.3521L67.3967 11.1479ZM66.8235 8.24C66.8235 7.03681 67.0617 5.99296 67.5299 5.10121L67.0872 4.86879C66.5753 5.8437 66.3235 6.96986 66.3235 8.24H66.8235ZM67.5288 5.1032C68.0234 4.18153 68.6706 3.48117 69.4689 2.99332L69.2082 2.56668C68.3264 3.1055 67.6203 3.87514 67.0882 4.8668L67.5288 5.1032ZM69.4731 2.99067C70.2902 2.46863 71.1631 2.09461 72.0928 1.86788L71.9743 1.38212C70.9906 1.62205 70.0668 2.01804 69.2039 2.56932L69.4731 2.99067ZM72.0983 1.86646C73.0322 1.61591 74.0252 1.49 75.0785 1.49V0.989998C73.9851 0.989998 72.9482 1.12075 71.9687 1.38354L72.0983 1.86646ZM75.0785 1.49C75.6724 1.49 76.3026 1.53569 76.9694 1.62765L77.0377 1.13234C76.3511 1.03764 75.6979 0.989998 75.0785 0.989998V1.49ZM76.9778 1.62867C77.6413 1.69731 78.3412 1.82337 79.0779 2.00754L79.1992 1.52246C78.4425 1.33329 77.7191 1.20269 77.0292 1.13133L76.9778 1.62867ZM79.0796 2.00796C79.8224 2.18804 80.4021 2.46543 80.8316 2.83048L81.1554 2.44951C80.6516 2.02123 79.9946 1.71529 79.1974 1.52204L79.0796 2.00796ZM80.8362 2.83431C81.279 3.19277 81.4785 3.59235 81.4785 4.04H81.9785C81.9785 3.41432 81.688 2.88056 81.1508 2.44569L80.8362 2.83431ZM81.4785 4.04C81.4785 4.49886 81.3327 4.99236 81.0226 5.52403L81.4545 5.77597C81.7977 5.18764 81.9785 4.60781 81.9785 4.04H81.4785ZM81.025 5.52001C80.7371 5.993 80.3693 6.205 79.9085 6.205V6.705C80.5677 6.705 81.0866 6.38034 81.4521 5.77999L81.025 5.52001ZM79.9085 6.205C79.8916 6.205 79.8435 6.19905 79.7514 6.17292C79.6639 6.14812 79.5515 6.10952 79.4126 6.05566C79.1351 5.94803 78.7651 5.78473 78.3008 5.56418L78.0863 6.01582C78.5553 6.2386 78.9378 6.4078 79.2319 6.52184C79.3788 6.57881 79.507 6.62334 79.615 6.65395C79.7183 6.68325 79.8204 6.705 79.9085 6.705V6.205ZM78.3008 5.56418C77.3305 5.1033 76.255 4.875 75.0785 4.875V5.375C76.1887 5.375 77.1899 5.59004 78.0863 6.01582L78.3008 5.56418ZM75.0785 4.875C73.7903 4.875 72.7528 5.12484 71.9952 5.65519L72.2819 6.06481C72.9242 5.61516 73.8467 5.375 75.0785 5.375V4.875ZM71.9966 5.6542C71.2505 6.16874 70.8735 6.89996 70.8735 7.82H71.3735C71.3735 7.06004 71.6732 6.48459 72.2804 6.0658L71.9966 5.6542ZM70.8735 7.82C70.8735 8.57573 71.1899 9.23504 71.7946 9.78929L72.1324 9.42071C71.6171 8.94829 71.3735 8.4176 71.3735 7.82H70.8735ZM71.7989 9.79314C72.3836 10.3048 73.0974 10.7268 73.9357 11.0621L74.1214 10.5979C73.3263 10.2798 72.6634 9.8852 72.1281 9.41686L71.7989 9.79314ZM73.9436 11.0651C74.7719 11.3642 75.6605 11.7564 76.6095 12.2425L76.8375 11.7975C75.8732 11.3036 74.9651 10.9024 74.1134 10.5949L73.9436 11.0651ZM76.616 12.2457C77.5854 12.7073 78.4722 13.2142 79.2771 13.7662L79.5599 13.3538C78.7315 12.7858 77.8217 12.266 76.831 11.7943L76.616 12.2457ZM79.2798 13.768C80.0785 14.3005 80.7525 15.0822 81.2969 16.1256L81.7402 15.8944C81.1646 14.7911 80.4385 13.9395 79.5572 13.352L79.2798 13.768ZM81.2979 16.1276C81.8352 17.135 82.1085 18.3297 82.1085 19.72H82.6085C82.6085 18.2636 82.3219 16.985 81.7391 15.8924L81.2979 16.1276ZM82.1085 19.72C82.1085 22.0894 81.3595 23.8925 79.8851 25.1658L80.2119 25.5442C81.8176 24.1575 82.6085 22.204 82.6085 19.72H82.1085ZM79.8853 25.1656C78.4244 26.4242 76.4806 27.065 74.0285 27.065V27.565C76.5698 27.565 78.6393 26.8991 80.2117 25.5444L79.8853 25.1656ZM74.0285 27.065C71.8463 27.065 69.9894 26.6173 68.4479 25.7331L68.1991 26.1669C69.8309 27.1027 71.7774 27.565 74.0285 27.565V27.065ZM68.4479 25.7331C66.8826 24.8354 66.1935 23.9087 66.1935 22.975H65.6935C65.6935 24.1879 66.5911 25.2446 68.1991 26.1669L68.4479 25.7331ZM83.6596 2.045L83.4463 1.91462L83.4442 1.91824L83.6596 2.045ZM100.6 2.045L100.381 2.16641L100.385 2.17376L100.39 2.18081L100.6 2.045ZM100.6 4.915L100.81 5.05086L100.813 5.04536L100.6 4.915ZM94.4396 5.51V5.26H94.1896V5.51H94.4396ZM93.7396 26.615L93.6191 26.3959L93.6144 26.3986L93.7396 26.615ZM90.5546 26.615L90.6799 26.3986L90.6799 26.3986L90.5546 26.615ZM89.8896 5.51H90.1396V5.26H89.8896V5.51ZM83.6946 4.915L83.9045 4.77919L83.9045 4.77919L83.6946 4.915ZM83.5596 3.445C83.5596 2.94541 83.6679 2.52402 83.8751 2.17175L83.4442 1.91824C83.1847 2.35931 83.0596 2.87125 83.0596 3.445H83.5596ZM83.873 2.17536C84.0872 1.82474 84.3707 1.665 84.7446 1.665V1.165C84.1853 1.165 83.7454 1.42526 83.4463 1.91464L83.873 2.17536ZM84.7446 1.665H99.5496V1.165H84.7446V1.665ZM99.5496 1.665C99.7443 1.665 99.9027 1.70837 100.034 1.78687C100.165 1.8656 100.282 1.98791 100.381 2.16641L100.818 1.92359C100.684 1.68209 100.51 1.4894 100.291 1.35813C100.072 1.22663 99.8217 1.165 99.5496 1.165V1.665ZM100.39 2.18081C100.617 2.53171 100.735 2.94979 100.735 3.445H101.235C101.235 2.86688 101.096 2.35162 100.81 1.90919L100.39 2.18081ZM100.735 3.445C100.735 3.96547 100.616 4.40907 100.386 4.78464L100.813 5.04536C101.097 4.58093 101.235 4.04452 101.235 3.445H100.735ZM100.39 4.77919C100.176 5.11026 99.9017 5.26 99.5496 5.26V5.76C100.084 5.76 100.51 5.51308 100.81 5.05081L100.39 4.77919ZM99.5496 5.26H94.4396V5.76H99.5496V5.26ZM94.1896 5.51V25.565H94.6896V5.51H94.1896ZM94.1896 25.565C94.1896 25.8972 94.0251 26.1727 93.6192 26.3959L93.8601 26.8341C94.3875 26.544 94.6896 26.1195 94.6896 25.565H94.1896ZM93.6144 26.3986C93.2156 26.6295 92.7355 26.75 92.1646 26.75V27.25C92.8072 27.25 93.377 27.1138 93.8649 26.8314L93.6144 26.3986ZM92.1646 26.75C91.5686 26.75 91.0773 26.6287 90.6799 26.3986L90.4294 26.8314C90.9186 27.1146 91.5007 27.25 92.1646 27.25V26.75ZM90.6799 26.3986C90.2994 26.1784 90.1396 25.9037 90.1396 25.565H89.6396C89.6396 26.113 89.9232 26.5383 90.4294 26.8314L90.6799 26.3986ZM90.1396 25.565V5.51H89.6396V25.565H90.1396ZM89.8896 5.26H84.7446V5.76H89.8896V5.26ZM84.7446 5.26C84.3926 5.26 84.1188 5.11026 83.9045 4.77919L83.4848 5.05081C83.7839 5.51308 84.2101 5.76 84.7446 5.76V5.26ZM83.9045 4.77919C83.6796 4.43155 83.5596 3.99148 83.5596 3.445H83.0596C83.0596 4.06518 83.1964 4.60512 83.4848 5.05081L83.9045 4.77919ZM99.2493 24.76L99.0099 24.6866L99.0067 24.6994L99.2493 24.76ZM106.004 2.745L106.243 2.81835L106.245 2.81368L106.004 2.745ZM107.019 1.625L107.127 1.85057L107.131 1.84861L107.019 1.625ZM110.799 1.625L110.687 1.84873L110.695 1.85227L110.799 1.625ZM111.849 2.745L111.609 2.81369L111.61 2.81833L111.849 2.745ZM118.604 24.76L118.847 24.6993L118.843 24.6867L118.604 24.76ZM114.264 26.09L114.506 26.025L114.505 26.0213L114.264 26.09ZM112.934 21.435L113.175 21.3663L113.123 21.185H112.934V21.435ZM104.919 21.435V21.185H104.731L104.679 21.3663L104.919 21.435ZM103.589 26.09L103.349 26.0213L103.348 26.025L103.589 26.09ZM100.089 26.475L99.9581 26.6881L99.9678 26.6935L100.089 26.475ZM105.864 17.865L105.624 17.7968L105.534 18.115H105.864V17.865ZM111.954 17.865V18.115H112.285L112.195 17.7968L111.954 17.865ZM108.909 7.12L109.15 7.05184L108.909 6.20308L108.669 7.05184L108.909 7.12ZM99.4293 25.11C99.4293 25.1144 99.43 25.096 99.4419 25.0365C99.4525 24.9837 99.4689 24.9121 99.4918 24.8206L99.0067 24.6994C98.9829 24.7945 98.9644 24.8746 98.9516 24.9385C98.9402 24.9957 98.9293 25.0589 98.9293 25.11H99.4293ZM99.4883 24.8333L106.243 2.81833L105.765 2.67166L99.0103 24.6867L99.4883 24.8333ZM106.245 2.81368C106.362 2.40427 106.643 2.082 107.127 1.85053L106.911 1.39947C106.322 1.68133 105.927 2.10572 105.764 2.67632L106.245 2.81368ZM107.131 1.84861C107.652 1.58792 108.243 1.455 108.909 1.455V0.954998C108.175 0.954998 107.506 1.10208 106.907 1.40139L107.131 1.84861ZM108.909 1.455C109.575 1.455 110.166 1.58792 110.687 1.84861L110.911 1.40139C110.312 1.10208 109.643 0.954998 108.909 0.954998V1.455ZM110.695 1.85227C111.204 2.08546 111.493 2.40851 111.609 2.81368L112.09 2.67632C111.925 2.10148 111.515 1.67787 110.903 1.39773L110.695 1.85227ZM111.61 2.81833L118.365 24.8333L118.843 24.6867L112.088 2.67166L111.61 2.81833ZM118.362 24.8206C118.385 24.9122 118.401 24.9837 118.412 25.0365C118.424 25.096 118.424 25.1144 118.424 25.11H118.924C118.924 25.0589 118.913 24.9957 118.902 24.9385C118.889 24.8746 118.871 24.7945 118.847 24.6994L118.362 24.8206ZM118.424 25.11C118.424 25.5001 118.192 25.8754 117.602 26.2249L117.857 26.6551C118.527 26.2579 118.924 25.7465 118.924 25.11H118.424ZM117.602 26.2249C117.006 26.5782 116.408 26.75 115.804 26.75V27.25C116.508 27.25 117.193 27.0484 117.857 26.6551L117.602 26.2249ZM115.804 26.75C115.398 26.75 115.104 26.6782 114.899 26.5573C114.702 26.4408 114.571 26.269 114.506 26.025L114.023 26.155C114.12 26.5177 114.328 26.8009 114.645 26.9877C114.953 27.1701 115.347 27.25 115.804 27.25V26.75ZM114.505 26.0213L113.175 21.3663L112.694 21.5037L114.024 26.1587L114.505 26.0213ZM112.934 21.185H104.919V21.685H112.934V21.185ZM104.679 21.3663L103.349 26.0213L103.83 26.1587L105.16 21.5037L104.679 21.3663ZM103.348 26.025C103.282 26.269 103.152 26.4408 102.955 26.5573C102.75 26.6782 102.455 26.75 102.049 26.75V27.25C102.507 27.25 102.9 27.1701 103.209 26.9877C103.525 26.8009 103.733 26.5177 103.831 26.155L103.348 26.025ZM102.049 26.75C101.418 26.75 100.806 26.5872 100.211 26.2565L99.9678 26.6935C100.632 27.0628 101.327 27.25 102.049 27.25V26.75ZM100.22 26.2621C99.6603 25.9175 99.4293 25.532 99.4293 25.11H98.9293C98.9293 25.7613 99.3049 26.2859 99.9582 26.6879L100.22 26.2621ZM105.864 18.115H111.954V17.615H105.864V18.115ZM112.195 17.7968L109.15 7.05184L108.669 7.18816L111.714 17.9332L112.195 17.7968ZM108.669 7.05184L105.624 17.7968L106.105 17.9332L109.15 7.18816L108.669 7.05184ZM122.521 3.375L122.686 3.56333L122.686 3.56314L122.521 3.375ZM134.386 3.235L134.231 3.43138L134.233 3.4325L134.386 3.235ZM136.171 9.85L136.013 9.65587L136.007 9.66108L136.171 9.85ZM132.181 8.87L132.431 8.8639L132.431 8.85299L132.181 8.87ZM131.306 6.385L131.109 6.53948L131.112 6.54292L131.306 6.385ZM131.201 22.205L131.021 22.0313L131.018 22.0346L131.201 22.205ZM132.181 17.13H132.431V16.88H132.181V17.13ZM128.296 16.605L128.088 16.7438L128.094 16.7528L128.296 16.605ZM128.331 14.12L128.533 14.2679L128.537 14.2616L128.331 14.12ZM136.346 14.015L136.155 14.1766L136.162 14.1839L136.346 14.015ZM134.491 25.285L134.328 25.0954L134.491 25.285ZM122.521 25.285L122.357 25.4733L122.358 25.4746L122.521 25.285ZM120.566 19.195V9.43H120.066V19.195H120.566ZM120.566 9.43C120.566 6.71817 121.289 4.78217 122.686 3.56333L122.357 3.18667C120.813 4.53449 120.066 6.63516 120.066 9.43H120.566ZM122.686 3.56314C124.124 2.30436 126.01 1.665 128.366 1.665V1.165C125.916 1.165 123.905 1.83231 122.356 3.18686L122.686 3.56314ZM128.366 1.665C130.798 1.665 132.746 2.26102 134.231 3.43137L134.541 3.03863C132.946 1.78232 130.881 1.165 128.366 1.165V1.665ZM134.233 3.4325C135.733 4.59644 136.481 6.15552 136.481 8.135H136.981C136.981 6.00781 136.166 4.30023 134.539 3.0375L134.233 3.4325ZM136.481 8.135C136.481 8.95348 136.297 9.42593 136.013 9.65597L136.329 10.044C136.792 9.6674 136.981 8.99652 136.981 8.135H136.481ZM136.007 9.66108C135.726 9.90527 135.229 10.055 134.456 10.055V10.555C135.27 10.555 135.917 10.4014 136.335 10.0389L136.007 9.66108ZM134.456 10.055C133.729 10.055 133.221 9.93712 132.901 9.7348C132.598 9.54373 132.441 9.2653 132.431 8.8639L131.931 8.8761C131.945 9.43137 132.179 9.87043 132.634 10.1577C133.072 10.4337 133.69 10.555 134.456 10.555V10.055ZM132.431 8.85299C132.358 7.78853 132.054 6.9067 131.5 6.22708L131.112 6.54292C131.585 7.1233 131.864 7.89814 131.932 8.88701L132.431 8.85299ZM131.503 6.23054C130.919 5.48812 129.902 5.155 128.541 5.155V5.655C129.84 5.655 130.666 5.97521 131.11 6.53945L131.503 6.23054ZM128.541 5.155C127.271 5.155 126.275 5.5037 125.6 6.24268C124.929 6.97735 124.616 8.05514 124.616 9.43H125.116C125.116 8.12152 125.415 7.18681 125.969 6.57982C126.52 5.97713 127.361 5.655 128.541 5.655V5.155ZM124.616 9.43V19.195H125.116V9.43H124.616ZM124.616 19.195C124.616 20.5693 124.926 21.6468 125.591 22.3814C126.259 23.1209 127.247 23.47 128.506 23.47V22.97C127.338 22.97 126.506 22.6483 125.962 22.0461C125.413 21.4391 125.116 20.504 125.116 19.195H124.616ZM128.506 23.47C129.723 23.47 130.695 23.1154 131.384 22.3754L131.018 22.0346C130.447 22.6479 129.623 22.97 128.506 22.97V23.47ZM131.381 22.3786C132.095 21.639 132.431 20.5628 132.431 19.195H131.931C131.931 20.4872 131.614 21.4176 131.021 22.0314L131.381 22.3786ZM132.431 19.195V17.13H131.931V19.195H132.431ZM132.181 16.88H129.346V17.38H132.181V16.88ZM129.346 16.88C128.98 16.88 128.706 16.7413 128.498 16.4572L128.094 16.7528C128.399 17.1687 128.825 17.38 129.346 17.38V16.88ZM128.504 16.4663C128.302 16.1638 128.196 15.794 128.196 15.345H127.696C127.696 15.876 127.823 16.3462 128.088 16.7437L128.504 16.4663ZM128.196 15.345C128.196 14.9273 128.31 14.5717 128.533 14.2678L128.129 13.9722C127.839 14.3683 127.696 14.8294 127.696 15.345H128.196ZM128.537 14.2616C128.751 13.9498 129.016 13.81 129.346 13.81V13.31C128.836 13.31 128.424 13.5435 128.125 13.9784L128.537 14.2616ZM129.346 13.81H135.296V13.31H129.346V13.81ZM135.296 13.81C135.675 13.81 135.952 13.9362 136.155 14.1765L136.537 13.8535C136.227 13.4871 135.803 13.31 135.296 13.31V13.81ZM136.162 14.1839C136.374 14.4156 136.481 14.6928 136.481 15.03H136.981C136.981 14.5738 136.831 14.1744 136.53 13.8461L136.162 14.1839ZM136.481 15.03V19.195H136.981V15.03H136.481ZM136.481 19.195C136.481 21.9298 135.746 23.8766 134.328 25.0954L134.654 25.4746C136.222 24.1267 136.981 22.0135 136.981 19.195H136.481ZM134.328 25.0954C132.891 26.3302 130.959 26.96 128.506 26.96V27.46C131.046 27.46 133.104 26.8064 134.654 25.4746L134.328 25.0954ZM128.506 26.96C126.053 26.96 124.121 26.3302 122.684 25.0954L122.358 25.4746C123.908 26.8064 125.966 27.46 128.506 27.46V26.96ZM122.686 25.0967C121.29 23.8782 120.566 21.931 120.566 19.195H120.066C120.066 22.0124 120.812 24.1251 122.357 25.4733L122.686 25.0967ZM140.272 1.835L140.095 1.65822L140.095 1.65822L140.272 1.835ZM155.287 13.35L155.084 13.2039L155.082 13.2066L155.287 13.35ZM151.962 15.73L151.89 15.4905L151.596 15.5787L151.742 15.8486L151.962 15.73ZM156.547 24.235L156.327 24.3536L156.339 24.3757L156.355 24.395L156.547 24.235ZM155.812 26.44L155.969 26.6345L155.973 26.6308L155.812 26.44ZM152.312 26.09L152.09 26.2044L152.09 26.2047L152.312 26.09ZM147.342 16.43L147.564 16.3156L147.494 16.18H147.342V16.43ZM144.402 16.43V16.18H144.152V16.43H144.402ZM143.737 26.615L143.612 26.3986L143.612 26.3986L143.737 26.615ZM140.517 26.615L140.392 26.8314L140.396 26.8341L140.517 26.615ZM144.402 12.86H144.152V13.11H144.402V12.86ZM144.402 5.405V5.155H144.152V5.405H144.402ZM140.102 25.565V2.815H139.602V25.565H140.102ZM140.102 2.815C140.102 2.5123 140.212 2.24805 140.449 2.01178L140.095 1.65822C139.771 1.98195 139.602 2.37103 139.602 2.815H140.102ZM140.449 2.01178C140.679 1.78173 140.964 1.665 141.322 1.665V1.165C140.84 1.165 140.425 1.32827 140.095 1.65822L140.449 2.01178ZM141.322 1.665H148.252V1.165H141.322V1.665ZM148.252 1.665C150.986 1.665 152.989 2.26835 154.308 3.43126C155.621 4.58887 156.297 6.33893 156.297 8.73H156.797C156.797 6.2444 156.091 4.33696 154.639 3.05624C153.192 1.78081 151.048 1.165 148.252 1.165V1.665ZM156.297 8.73C156.297 10.6081 155.885 12.0919 155.084 13.2039L155.49 13.4961C156.369 12.2748 156.797 10.6786 156.797 8.73H156.297ZM155.082 13.2066C154.299 14.3259 153.238 15.0862 151.89 15.4905L152.034 15.9695C153.486 15.5338 154.642 14.7074 155.492 13.4934L155.082 13.2066ZM151.742 15.8486L156.327 24.3536L156.767 24.1164L152.182 15.6114L151.742 15.8486ZM156.355 24.395C156.425 24.4788 156.472 24.6034 156.472 24.795H156.972C156.972 24.5199 156.903 24.2712 156.739 24.075L156.355 24.395ZM156.472 24.795C156.472 25.2807 156.222 25.7652 155.65 26.2492L155.973 26.6308C156.615 26.0881 156.972 25.4759 156.972 24.795H156.472ZM155.655 26.2455C155.086 26.7053 154.498 26.925 153.887 26.925V27.425C154.629 27.425 155.325 27.1547 155.969 26.6345L155.655 26.2455ZM153.887 26.925C153.325 26.925 152.875 26.6359 152.534 25.9753L152.09 26.2047C152.496 26.9908 153.096 27.425 153.887 27.425V26.925ZM152.534 25.9756L147.564 16.3156L147.12 16.5444L152.09 26.2044L152.534 25.9756ZM147.342 16.18H144.402V16.68H147.342V16.18ZM144.152 16.43V25.565H144.652V16.43H144.152ZM144.152 25.565C144.152 25.9037 143.992 26.1784 143.612 26.3986L143.862 26.8314C144.368 26.5383 144.652 26.113 144.652 25.565H144.152ZM143.612 26.3986C143.214 26.6287 142.723 26.75 142.127 26.75V27.25C142.791 27.25 143.373 27.1146 143.862 26.8314L143.612 26.3986ZM142.127 26.75C141.556 26.75 141.062 26.6296 140.637 26.3959L140.396 26.8341C140.905 27.1137 141.484 27.25 142.127 27.25V26.75ZM140.642 26.3986C140.262 26.1784 140.102 25.9037 140.102 25.565H139.602C139.602 26.113 139.885 26.5383 140.392 26.8314L140.642 26.3986ZM144.402 13.11H148.252V12.61H144.402V13.11ZM148.252 13.11C149.538 13.11 150.549 12.7913 151.237 12.1101C151.925 11.4284 152.247 10.4258 152.247 9.15H151.747C151.747 10.3475 151.445 11.1999 150.885 11.7549C150.324 12.3103 149.462 12.61 148.252 12.61V13.11ZM152.247 9.15C152.247 7.86313 151.925 6.85206 151.237 6.16447C150.55 5.47689 149.539 5.155 148.252 5.155V5.655C149.462 5.655 150.323 5.95728 150.884 6.51803C151.445 7.07877 151.747 7.9402 151.747 9.15H152.247ZM148.252 5.155H144.402V5.655H148.252V5.155ZM144.152 5.405V12.86H144.652V5.405H144.152ZM157.598 24.76L157.359 24.6866L157.355 24.6994L157.598 24.76ZM164.353 2.745L164.592 2.81835L164.593 2.81368L164.353 2.745ZM165.368 1.625L165.476 1.85057L165.48 1.84861L165.368 1.625ZM169.148 1.625L169.036 1.84873L169.044 1.85227L169.148 1.625ZM170.198 2.745L169.957 2.81369L169.959 2.81833L170.198 2.745ZM176.953 24.76L177.196 24.6993L177.192 24.6867L176.953 24.76ZM172.613 26.09L172.854 26.025L172.853 26.0213L172.613 26.09ZM171.283 21.435L171.523 21.3663L171.471 21.185H171.283V21.435ZM163.268 21.435V21.185H163.079L163.028 21.3663L163.268 21.435ZM161.938 26.09L161.697 26.0213L161.696 26.025L161.938 26.09ZM158.438 26.475L158.307 26.6881L158.316 26.6935L158.438 26.475ZM164.213 17.865L163.972 17.7968L163.882 18.115H164.213V17.865ZM170.303 17.865V18.115H170.634L170.543 17.7968L170.303 17.865ZM167.258 7.12L167.498 7.05184L167.258 6.20308L167.017 7.05184L167.258 7.12ZM157.778 25.11C157.778 25.1144 157.779 25.096 157.791 25.0365C157.801 24.9837 157.818 24.9121 157.84 24.8206L157.355 24.6994C157.332 24.7945 157.313 24.8746 157.3 24.9385C157.289 24.9957 157.278 25.0589 157.278 25.11H157.778ZM157.837 24.8333L164.592 2.81833L164.114 2.67166L157.359 24.6867L157.837 24.8333ZM164.593 2.81368C164.71 2.40427 164.992 2.082 165.476 1.85053L165.26 1.39947C164.671 1.68133 164.276 2.10572 164.113 2.67632L164.593 2.81368ZM165.48 1.84861C166.001 1.58792 166.592 1.455 167.258 1.455V0.954998C166.524 0.954998 165.855 1.10208 165.256 1.40139L165.48 1.84861ZM167.258 1.455C167.924 1.455 168.515 1.58792 169.036 1.84861L169.26 1.40139C168.661 1.10208 167.992 0.954998 167.258 0.954998V1.455ZM169.044 1.85227C169.553 2.08546 169.842 2.40851 169.958 2.81368L170.438 2.67632C170.274 2.10148 169.863 1.67787 169.252 1.39773L169.044 1.85227ZM169.959 2.81833L176.714 24.8333L177.192 24.6867L170.437 2.67166L169.959 2.81833ZM176.71 24.8206C176.733 24.9122 176.75 24.9837 176.76 25.0365C176.772 25.096 176.773 25.1144 176.773 25.11H177.273C177.273 25.0589 177.262 24.9957 177.251 24.9385C177.238 24.8746 177.219 24.7945 177.195 24.6994L176.71 24.8206ZM176.773 25.11C176.773 25.5001 176.54 25.8754 175.95 26.2249L176.205 26.6551C176.876 26.2579 177.273 25.7465 177.273 25.11H176.773ZM175.95 26.2249C175.354 26.5782 174.756 26.75 174.153 26.75V27.25C174.856 27.25 175.542 27.0484 176.205 26.6551L175.95 26.2249ZM174.153 26.75C173.747 26.75 173.452 26.6782 173.248 26.5573C173.05 26.4408 172.92 26.269 172.854 26.025L172.371 26.155C172.469 26.5177 172.677 26.8009 172.993 26.9877C173.302 27.1701 173.695 27.25 174.153 27.25V26.75ZM172.853 26.0213L171.523 21.3663L171.043 21.5037L172.373 26.1587L172.853 26.0213ZM171.283 21.185H163.268V21.685H171.283V21.185ZM163.028 21.3663L161.698 26.0213L162.178 26.1587L163.508 21.5037L163.028 21.3663ZM161.696 26.025C161.631 26.269 161.5 26.4408 161.303 26.5573C161.099 26.6782 160.804 26.75 160.398 26.75V27.25C160.855 27.25 161.249 27.1701 161.558 26.9877C161.874 26.8009 162.082 26.5177 162.179 26.155L161.696 26.025ZM160.398 26.75C159.766 26.75 159.155 26.5872 158.559 26.2565L158.316 26.6935C158.981 27.0628 159.676 27.25 160.398 27.25V26.75ZM158.569 26.2621C158.009 25.9175 157.778 25.532 157.778 25.11H157.278C157.278 25.7613 157.654 26.2859 158.307 26.6879L158.569 26.2621ZM164.213 18.115H170.303V17.615H164.213V18.115ZM170.543 17.7968L167.498 7.05184L167.017 7.18816L170.062 17.9332L170.543 17.7968ZM167.017 7.05184L163.972 17.7968L164.453 17.9332L167.498 7.18816L167.017 7.05184ZM179.575 1.975L179.414 1.7837L179.409 1.78815L179.575 1.975ZM183.215 1.87L183.351 1.66039L183.351 1.66039L183.215 1.87ZM184.755 3.83L184.974 3.70967L184.973 3.70816L184.755 3.83ZM189.06 11.67L188.841 11.7903L189.06 12.1894L189.279 11.7903L189.06 11.67ZM193.365 3.83L193.146 3.70815L193.146 3.70967L193.365 3.83ZM194.905 1.87L194.773 1.65738L194.768 1.66039L194.905 1.87ZM198.545 1.975L198.379 2.16192L198.384 2.16623L198.545 1.975ZM198.51 26.615L198.389 26.3959L198.384 26.3986L198.51 26.615ZM195.325 26.615L195.199 26.8314L195.199 26.8314L195.325 26.615ZM194.66 10.515H194.91V9.56062L194.442 10.3924L194.66 10.515ZM190.565 17.795L190.347 17.6724L190.345 17.6765L190.565 17.795ZM187.52 17.795L187.299 17.9125L187.3 17.9135L187.52 17.795ZM183.495 10.235L183.715 10.1175L183.245 10.235H183.495ZM182.795 26.615L182.674 26.3959L182.669 26.3986L182.795 26.615ZM179.195 25.565V3.69H178.695V25.565H179.195ZM179.195 3.69C179.195 2.96384 179.392 2.47208 179.741 2.16185L179.409 1.78815C178.918 2.22458 178.695 2.87615 178.695 3.69H179.195ZM179.736 2.16623C180.128 1.83569 180.617 1.665 181.22 1.665V1.165C180.515 1.165 179.908 1.36764 179.414 1.78377L179.736 2.16623ZM181.22 1.665C182.059 1.665 182.669 1.81344 183.078 2.07961L183.351 1.66039C182.827 1.31989 182.107 1.165 181.22 1.165V1.665ZM183.078 2.07961C183.491 2.34754 183.979 2.95386 184.536 3.95184L184.973 3.70816C184.41 2.69947 183.872 1.99913 183.351 1.66039L183.078 2.07961ZM184.536 3.95033L188.841 11.7903L189.279 11.5497L184.974 3.70967L184.536 3.95033ZM189.279 11.7903L193.584 3.95033L193.146 3.70967L188.841 11.5497L189.279 11.7903ZM193.583 3.95184C194.14 2.95386 194.629 2.34754 195.041 2.07961L194.768 1.66039C194.247 1.99913 193.709 2.69947 193.146 3.70816L193.583 3.95184ZM195.036 2.08256C195.472 1.813 196.096 1.665 196.935 1.665V1.165C196.046 1.165 195.318 1.32033 194.773 1.65743L195.036 2.08256ZM196.935 1.665C197.537 1.665 198.012 1.83571 198.379 2.16185L198.711 1.78815C198.238 1.36762 197.639 1.165 196.935 1.165V1.665ZM198.384 2.16623C198.753 2.47764 198.96 2.96797 198.96 3.69H199.46C199.46 2.87203 199.223 2.21902 198.706 1.78377L198.384 2.16623ZM198.96 3.69V25.565H199.46V3.69H198.96ZM198.96 25.565C198.96 25.8972 198.795 26.1727 198.389 26.3959L198.63 26.8341C199.158 26.544 199.46 26.1195 199.46 25.565H198.96ZM198.384 26.3986C197.986 26.6295 197.506 26.75 196.935 26.75V27.25C197.577 27.25 198.147 27.1138 198.635 26.8314L198.384 26.3986ZM196.935 26.75C196.339 26.75 195.847 26.6287 195.45 26.3986L195.199 26.8314C195.689 27.1146 196.271 27.25 196.935 27.25V26.75ZM195.45 26.3986C195.07 26.1784 194.91 25.9037 194.91 25.565H194.41C194.41 26.113 194.693 26.5383 195.199 26.8314L195.45 26.3986ZM194.91 25.565V10.515H194.41V25.565H194.91ZM194.442 10.3924L190.347 17.6724L190.783 17.9176L194.878 10.6376L194.442 10.3924ZM190.345 17.6765C190.199 17.9461 190.019 18.1372 189.808 18.2623C189.596 18.3875 189.338 18.455 189.025 18.455V18.955C189.412 18.955 189.76 18.8709 190.062 18.6927C190.364 18.5145 190.603 18.2506 190.785 17.9135L190.345 17.6765ZM189.025 18.455C188.725 18.455 188.476 18.3882 188.27 18.2636C188.064 18.1388 187.886 17.9474 187.74 17.6765L187.3 17.9135C187.48 18.2492 187.716 18.5129 188.012 18.6914C188.307 18.8701 188.648 18.955 189.025 18.955V18.455ZM187.74 17.6775L183.715 10.1175L183.274 10.3525L187.299 17.9125L187.74 17.6775ZM183.245 10.235V25.565H183.745V10.235H183.245ZM183.245 25.565C183.245 25.8972 183.08 26.1727 182.674 26.3959L182.915 26.8341C183.443 26.544 183.745 26.1195 183.745 25.565H183.245ZM182.669 26.3986C182.271 26.6295 181.791 26.75 181.22 26.75V27.25C181.862 27.25 182.432 27.1138 182.92 26.8314L182.669 26.3986ZM181.22 26.75C180.624 26.75 180.132 26.6287 179.735 26.3986L179.484 26.8314C179.974 27.1146 180.556 27.25 181.22 27.25V26.75ZM179.735 26.3986C179.355 26.1784 179.195 25.9037 179.195 25.565H178.695C178.695 26.113 178.978 26.5383 179.484 26.8314L179.735 26.3986Z" fill="white"/>
<path d="M1 28.785V28.535H0.75V28.785H1ZM200.81 28.785H201.06V28.535H200.81V28.785ZM200.81 29.695V29.945H201.06V29.695H200.81ZM1 29.695H0.75V29.945H1V29.695ZM1 29.035H200.81V28.535H1V29.035ZM200.56 28.785V29.695H201.06V28.785H200.56ZM200.81 29.445H1V29.945H200.81V29.445ZM1.25 29.695V28.785H0.75V29.695H1.25Z" fill="white"/>
<defs>
<linearGradient id="paint0_linear" x1="0.611449" y1="14" x2="200.611" y2="14" gradientUnits="userSpaceOnUse">
<stop stop-color="#FF4963"/>
<stop offset="0.494792" stop-color="#FFB03D"/>
<stop offset="0.9999" stop-color="#23CC99"/>
<stop offset="1" stop-color="#17C8A2"/>
</linearGradient>
<linearGradient id="paint1_linear" x1="0.611449" y1="14" x2="200.611" y2="14" gradientUnits="userSpaceOnUse">
<stop stop-color="#FF4963"/>
<stop offset="0.494792" stop-color="#FFB03D"/>
<stop offset="0.9999" stop-color="#23CC99"/>
<stop offset="1" stop-color="#17C8A2"/>
</linearGradient>
</defs>
</svg>
